<mxfile host="app.diagrams.net" agent="Mozilla/5.0 (X11; Linux x86_64; rv:129.0) Gecko/20100101 Firefox/129.0" version="25.0.3">
  <diagram name="Page-1" id="IG3MzUUw2ymZqQd2v7ET">
    <mxGraphModel dx="1366" dy="1269" grid="1" gridSize="10" guides="1" tooltips="1" connect="1" arrows="1" fold="1" page="0" pageScale="1" pageWidth="850" pageHeight="1100" math="0" shadow="0">
      <root>
        <mxCell id="0" />
        <mxCell id="1" parent="0" />
        <mxCell id="coB8QqFpyWx458fDY29j-12" value="" style="endArrow=none;dashed=1;html=1;dashPattern=1 3;strokeWidth=2;rounded=0;fillColor=#f5f5f5;strokeColor=#666666;opacity=50;" edge="1" parent="1">
          <mxGeometry width="50" height="50" relative="1" as="geometry">
            <mxPoint x="300" y="-160" as="sourcePoint" />
            <mxPoint x="300" y="240" as="targetPoint" />
          </mxGeometry>
        </mxCell>
        <mxCell id="coB8QqFpyWx458fDY29j-13" value="" style="endArrow=none;dashed=1;html=1;dashPattern=1 3;strokeWidth=2;rounded=0;fillColor=#f5f5f5;strokeColor=#666666;opacity=50;" edge="1" parent="1">
          <mxGeometry width="50" height="50" relative="1" as="geometry">
            <mxPoint x="260" y="-160" as="sourcePoint" />
            <mxPoint x="260" y="240" as="targetPoint" />
          </mxGeometry>
        </mxCell>
        <mxCell id="coB8QqFpyWx458fDY29j-3" value="" style="endArrow=none;dashed=1;html=1;dashPattern=1 3;strokeWidth=2;rounded=0;fillColor=#f5f5f5;strokeColor=#666666;opacity=50;" edge="1" parent="1">
          <mxGeometry width="50" height="50" relative="1" as="geometry">
            <mxPoint x="819.5" y="160" as="sourcePoint" />
            <mxPoint x="820" y="200" as="targetPoint" />
          </mxGeometry>
        </mxCell>
        <mxCell id="coB8QqFpyWx458fDY29j-4" value="" style="endArrow=none;dashed=1;html=1;dashPattern=1 3;strokeWidth=2;rounded=0;fillColor=#f5f5f5;strokeColor=#666666;opacity=50;" edge="1" parent="1">
          <mxGeometry width="50" height="50" relative="1" as="geometry">
            <mxPoint x="859.5" y="160" as="sourcePoint" />
            <mxPoint x="860" y="200" as="targetPoint" />
          </mxGeometry>
        </mxCell>
        <mxCell id="coB8QqFpyWx458fDY29j-1" value="" style="endArrow=none;dashed=1;html=1;dashPattern=1 3;strokeWidth=2;rounded=0;fillColor=#f5f5f5;strokeColor=#666666;opacity=50;" edge="1" parent="1">
          <mxGeometry width="50" height="50" relative="1" as="geometry">
            <mxPoint x="899.5" y="960" as="sourcePoint" />
            <mxPoint x="900" y="1000" as="targetPoint" />
          </mxGeometry>
        </mxCell>
        <mxCell id="coB8QqFpyWx458fDY29j-2" value="" style="endArrow=none;dashed=1;html=1;dashPattern=1 3;strokeWidth=2;rounded=0;fillColor=#f5f5f5;strokeColor=#666666;opacity=50;" edge="1" parent="1">
          <mxGeometry width="50" height="50" relative="1" as="geometry">
            <mxPoint x="939.5" y="960" as="sourcePoint" />
            <mxPoint x="940" y="1000" as="targetPoint" />
          </mxGeometry>
        </mxCell>
        <mxCell id="m7AmhTVpTq-Uz_7KJyDs-200" value="" style="endArrow=none;dashed=1;html=1;dashPattern=1 3;strokeWidth=2;rounded=0;fillColor=#f5f5f5;strokeColor=#666666;opacity=50;" parent="1" edge="1">
          <mxGeometry width="50" height="50" relative="1" as="geometry">
            <mxPoint x="620" as="sourcePoint" />
            <mxPoint x="620" y="920" as="targetPoint" />
          </mxGeometry>
        </mxCell>
        <mxCell id="m7AmhTVpTq-Uz_7KJyDs-201" value="" style="endArrow=none;dashed=1;html=1;dashPattern=1 3;strokeWidth=2;rounded=0;fillColor=#f5f5f5;strokeColor=#666666;opacity=50;" parent="1" edge="1">
          <mxGeometry width="50" height="50" relative="1" as="geometry">
            <mxPoint x="580" as="sourcePoint" />
            <mxPoint x="580" y="920" as="targetPoint" />
          </mxGeometry>
        </mxCell>
        <mxCell id="m7AmhTVpTq-Uz_7KJyDs-199" value="" style="endArrow=none;dashed=1;html=1;dashPattern=1 3;strokeWidth=2;rounded=0;fillColor=#f5f5f5;strokeColor=#666666;opacity=50;" parent="1" edge="1">
          <mxGeometry width="50" height="50" relative="1" as="geometry">
            <mxPoint x="660" y="760" as="sourcePoint" />
            <mxPoint x="660" y="1000" as="targetPoint" />
          </mxGeometry>
        </mxCell>
        <mxCell id="m7AmhTVpTq-Uz_7KJyDs-198" value="" style="endArrow=none;dashed=1;html=1;dashPattern=1 3;strokeWidth=2;rounded=0;fillColor=#f5f5f5;strokeColor=#666666;opacity=50;" parent="1" edge="1">
          <mxGeometry width="50" height="50" relative="1" as="geometry">
            <mxPoint x="700" y="760" as="sourcePoint" />
            <mxPoint x="700" y="1000" as="targetPoint" />
          </mxGeometry>
        </mxCell>
        <mxCell id="m7AmhTVpTq-Uz_7KJyDs-196" value="" style="endArrow=none;dashed=1;html=1;dashPattern=1 3;strokeWidth=2;rounded=0;fillColor=#f5f5f5;strokeColor=#666666;opacity=50;" parent="1" edge="1">
          <mxGeometry width="50" height="50" relative="1" as="geometry">
            <mxPoint x="300" y="320" as="sourcePoint" />
            <mxPoint x="300" y="1000.952380952381" as="targetPoint" />
          </mxGeometry>
        </mxCell>
        <mxCell id="m7AmhTVpTq-Uz_7KJyDs-197" value="" style="endArrow=none;dashed=1;html=1;dashPattern=1 3;strokeWidth=2;rounded=0;fillColor=#f5f5f5;strokeColor=#666666;opacity=50;" parent="1" edge="1">
          <mxGeometry width="50" height="50" relative="1" as="geometry">
            <mxPoint x="260" y="320" as="sourcePoint" />
            <mxPoint x="260" y="1000.952380952381" as="targetPoint" />
          </mxGeometry>
        </mxCell>
        <mxCell id="m7AmhTVpTq-Uz_7KJyDs-32" style="edgeStyle=orthogonalEdgeStyle;rounded=0;orthogonalLoop=1;jettySize=auto;html=1;entryX=0;entryY=0.5;entryDx=0;entryDy=0;fillColor=#d5e8d4;strokeColor=#82b366;" parent="1" source="m7AmhTVpTq-Uz_7KJyDs-1" target="m7AmhTVpTq-Uz_7KJyDs-30" edge="1">
          <mxGeometry relative="1" as="geometry" />
        </mxCell>
        <mxCell id="m7AmhTVpTq-Uz_7KJyDs-95" style="edgeStyle=orthogonalEdgeStyle;rounded=0;orthogonalLoop=1;jettySize=auto;html=1;entryX=0.5;entryY=1;entryDx=0;entryDy=0;fillColor=#d5e8d4;strokeColor=#82b366;" parent="1" target="m7AmhTVpTq-Uz_7KJyDs-96" edge="1">
          <mxGeometry relative="1" as="geometry">
            <mxPoint x="320" y="240" as="targetPoint" />
            <mxPoint x="240" y="260" as="sourcePoint" />
            <Array as="points">
              <mxPoint x="320" y="260" />
            </Array>
          </mxGeometry>
        </mxCell>
        <mxCell id="m7AmhTVpTq-Uz_7KJyDs-113" style="edgeStyle=orthogonalEdgeStyle;rounded=0;orthogonalLoop=1;jettySize=auto;html=1;fillColor=#d5e8d4;strokeColor=#82b366;" parent="1" source="m7AmhTVpTq-Uz_7KJyDs-1" edge="1">
          <mxGeometry relative="1" as="geometry">
            <mxPoint x="270" y="320" as="targetPoint" />
            <Array as="points">
              <mxPoint x="270" y="260" />
            </Array>
          </mxGeometry>
        </mxCell>
        <mxCell id="m7AmhTVpTq-Uz_7KJyDs-177" style="edgeStyle=orthogonalEdgeStyle;rounded=0;orthogonalLoop=1;jettySize=auto;html=1;fillColor=#d5e8d4;strokeColor=#82b366;" parent="1" source="m7AmhTVpTq-Uz_7KJyDs-1" edge="1">
          <mxGeometry relative="1" as="geometry">
            <mxPoint x="290" y="320" as="targetPoint" />
          </mxGeometry>
        </mxCell>
        <mxCell id="coB8QqFpyWx458fDY29j-18" style="edgeStyle=orthogonalEdgeStyle;rounded=0;orthogonalLoop=1;jettySize=auto;html=1;fillColor=#d5e8d4;strokeColor=#82b366;" edge="1" parent="1" source="m7AmhTVpTq-Uz_7KJyDs-1">
          <mxGeometry relative="1" as="geometry">
            <mxPoint x="280" y="240" as="targetPoint" />
            <Array as="points">
              <mxPoint x="280" y="260" />
            </Array>
          </mxGeometry>
        </mxCell>
        <mxCell id="m7AmhTVpTq-Uz_7KJyDs-1" value="&lt;div&gt;Wood&lt;/div&gt;" style="rounded=0;whiteSpace=wrap;html=1;fillColor=#d5e8d4;strokeColor=#82b366;" parent="1" vertex="1">
          <mxGeometry x="120" y="240" width="80" height="40" as="geometry" />
        </mxCell>
        <mxCell id="m7AmhTVpTq-Uz_7KJyDs-29" style="edgeStyle=orthogonalEdgeStyle;rounded=0;orthogonalLoop=1;jettySize=auto;html=1;exitX=1;exitY=0.25;exitDx=0;exitDy=0;entryX=0;entryY=0.25;entryDx=0;entryDy=0;fillColor=#fff2cc;strokeColor=#d6b656;" parent="1" source="m7AmhTVpTq-Uz_7KJyDs-2" target="m7AmhTVpTq-Uz_7KJyDs-27" edge="1">
          <mxGeometry relative="1" as="geometry" />
        </mxCell>
        <mxCell id="m7AmhTVpTq-Uz_7KJyDs-2" value="Leather" style="rounded=0;whiteSpace=wrap;html=1;fillColor=#fff2cc;strokeColor=#d6b656;" parent="1" vertex="1">
          <mxGeometry x="120" y="320" width="80" height="40" as="geometry" />
        </mxCell>
        <mxCell id="m7AmhTVpTq-Uz_7KJyDs-14" style="edgeStyle=orthogonalEdgeStyle;rounded=0;orthogonalLoop=1;jettySize=auto;html=1;entryX=0;entryY=0.5;entryDx=0;entryDy=0;fillColor=#d5e8d4;strokeColor=#82b366;" parent="1" source="m7AmhTVpTq-Uz_7KJyDs-3" target="m7AmhTVpTq-Uz_7KJyDs-13" edge="1">
          <mxGeometry relative="1" as="geometry" />
        </mxCell>
        <mxCell id="m7AmhTVpTq-Uz_7KJyDs-15" style="edgeStyle=orthogonalEdgeStyle;rounded=0;orthogonalLoop=1;jettySize=auto;html=1;entryX=0;entryY=0.5;entryDx=0;entryDy=0;fillColor=#d5e8d4;strokeColor=#82b366;" parent="1" source="m7AmhTVpTq-Uz_7KJyDs-3" target="m7AmhTVpTq-Uz_7KJyDs-12" edge="1">
          <mxGeometry relative="1" as="geometry" />
        </mxCell>
        <mxCell id="m7AmhTVpTq-Uz_7KJyDs-3" value="Jute" style="rounded=0;whiteSpace=wrap;html=1;fillColor=#d5e8d4;strokeColor=#82b366;" parent="1" vertex="1">
          <mxGeometry x="120" y="500" width="80" height="40" as="geometry" />
        </mxCell>
        <mxCell id="coB8QqFpyWx458fDY29j-22" style="edgeStyle=orthogonalEdgeStyle;rounded=0;orthogonalLoop=1;jettySize=auto;html=1;entryX=0;entryY=0.5;entryDx=0;entryDy=0;fillColor=#fff2cc;strokeColor=#d6b656;" edge="1" parent="1">
          <mxGeometry relative="1" as="geometry">
            <mxPoint x="200" y="630" as="sourcePoint" />
            <mxPoint x="480" y="630" as="targetPoint" />
          </mxGeometry>
        </mxCell>
        <mxCell id="m7AmhTVpTq-Uz_7KJyDs-4" value="Wax" style="rounded=0;whiteSpace=wrap;html=1;fillColor=#fff2cc;strokeColor=#d6b656;" parent="1" vertex="1">
          <mxGeometry x="120" y="600" width="80" height="40" as="geometry" />
        </mxCell>
        <mxCell id="m7AmhTVpTq-Uz_7KJyDs-36" style="edgeStyle=orthogonalEdgeStyle;rounded=0;orthogonalLoop=1;jettySize=auto;html=1;fillColor=#dae8fc;strokeColor=#6c8ebf;" parent="1" source="m7AmhTVpTq-Uz_7KJyDs-5" target="m7AmhTVpTq-Uz_7KJyDs-33" edge="1">
          <mxGeometry relative="1" as="geometry" />
        </mxCell>
        <mxCell id="m7AmhTVpTq-Uz_7KJyDs-116" style="edgeStyle=orthogonalEdgeStyle;rounded=0;orthogonalLoop=1;jettySize=auto;html=1;entryX=0.5;entryY=0;entryDx=0;entryDy=0;fillColor=#dae8fc;strokeColor=#6c8ebf;" parent="1" source="m7AmhTVpTq-Uz_7KJyDs-5" target="m7AmhTVpTq-Uz_7KJyDs-114" edge="1">
          <mxGeometry relative="1" as="geometry" />
        </mxCell>
        <mxCell id="m7AmhTVpTq-Uz_7KJyDs-5" value="Waterpower" style="rounded=0;whiteSpace=wrap;html=1;fillColor=#f8cecc;strokeColor=#b85450;" parent="1" vertex="1">
          <mxGeometry x="120" y="680" width="80" height="40" as="geometry" />
        </mxCell>
        <mxCell id="m7AmhTVpTq-Uz_7KJyDs-115" style="edgeStyle=orthogonalEdgeStyle;rounded=0;orthogonalLoop=1;jettySize=auto;html=1;entryX=0;entryY=0.5;entryDx=0;entryDy=0;fillColor=#f5f5f5;strokeColor=#666666;" parent="1" source="m7AmhTVpTq-Uz_7KJyDs-6" target="m7AmhTVpTq-Uz_7KJyDs-114" edge="1">
          <mxGeometry relative="1" as="geometry" />
        </mxCell>
        <mxCell id="m7AmhTVpTq-Uz_7KJyDs-6" value="Sluice" style="rounded=0;whiteSpace=wrap;html=1;fillColor=#f5f5f5;strokeColor=#666666;fontColor=#333333;" parent="1" vertex="1">
          <mxGeometry x="240" y="760" width="80" height="40" as="geometry" />
        </mxCell>
        <mxCell id="m7AmhTVpTq-Uz_7KJyDs-19" style="edgeStyle=orthogonalEdgeStyle;rounded=0;orthogonalLoop=1;jettySize=auto;html=1;entryX=0;entryY=0.5;entryDx=0;entryDy=0;fillColor=#d5e8d4;strokeColor=#82b366;" parent="1" source="m7AmhTVpTq-Uz_7KJyDs-12" target="m7AmhTVpTq-Uz_7KJyDs-18" edge="1">
          <mxGeometry relative="1" as="geometry" />
        </mxCell>
        <mxCell id="m7AmhTVpTq-Uz_7KJyDs-21" style="edgeStyle=orthogonalEdgeStyle;rounded=0;orthogonalLoop=1;jettySize=auto;html=1;entryX=0;entryY=0.5;entryDx=0;entryDy=0;fillColor=#d5e8d4;strokeColor=#82b366;" parent="1" source="m7AmhTVpTq-Uz_7KJyDs-12" target="m7AmhTVpTq-Uz_7KJyDs-17" edge="1">
          <mxGeometry relative="1" as="geometry" />
        </mxCell>
        <mxCell id="m7AmhTVpTq-Uz_7KJyDs-22" style="edgeStyle=orthogonalEdgeStyle;rounded=0;orthogonalLoop=1;jettySize=auto;html=1;entryX=0;entryY=0.5;entryDx=0;entryDy=0;fillColor=#d5e8d4;strokeColor=#82b366;" parent="1" source="m7AmhTVpTq-Uz_7KJyDs-12" target="m7AmhTVpTq-Uz_7KJyDs-20" edge="1">
          <mxGeometry relative="1" as="geometry" />
        </mxCell>
        <mxCell id="m7AmhTVpTq-Uz_7KJyDs-12" value="Bast Fibre" style="rounded=0;whiteSpace=wrap;html=1;fillColor=#d5e8d4;strokeColor=#82b366;" parent="1" vertex="1">
          <mxGeometry x="240" y="460" width="80" height="40" as="geometry" />
        </mxCell>
        <mxCell id="m7AmhTVpTq-Uz_7KJyDs-13" value="Waste Biomass" style="rounded=0;whiteSpace=wrap;html=1;fillColor=#d5e8d4;strokeColor=#82b366;" parent="1" vertex="1">
          <mxGeometry x="240" y="540" width="80" height="40" as="geometry" />
        </mxCell>
        <mxCell id="m7AmhTVpTq-Uz_7KJyDs-17" value="Rope" style="rounded=0;whiteSpace=wrap;html=1;fillColor=#d5e8d4;strokeColor=#82b366;" parent="1" vertex="1">
          <mxGeometry x="360" y="460" width="80" height="40" as="geometry" />
        </mxCell>
        <mxCell id="m7AmhTVpTq-Uz_7KJyDs-18" value="String" style="rounded=0;whiteSpace=wrap;html=1;fillColor=#d5e8d4;strokeColor=#82b366;" parent="1" vertex="1">
          <mxGeometry x="360" y="400" width="80" height="40" as="geometry" />
        </mxCell>
        <mxCell id="m7AmhTVpTq-Uz_7KJyDs-24" style="edgeStyle=orthogonalEdgeStyle;rounded=0;orthogonalLoop=1;jettySize=auto;html=1;entryX=0;entryY=0.25;entryDx=0;entryDy=0;fillColor=#d5e8d4;strokeColor=#82b366;" parent="1" source="m7AmhTVpTq-Uz_7KJyDs-20" target="m7AmhTVpTq-Uz_7KJyDs-23" edge="1">
          <mxGeometry relative="1" as="geometry">
            <mxPoint x="470" y="630" as="targetPoint" />
          </mxGeometry>
        </mxCell>
        <mxCell id="m7AmhTVpTq-Uz_7KJyDs-20" value="Canvas" style="rounded=0;whiteSpace=wrap;html=1;fillColor=#d5e8d4;strokeColor=#82b366;" parent="1" vertex="1">
          <mxGeometry x="360" y="520" width="80" height="40" as="geometry" />
        </mxCell>
        <mxCell id="m7AmhTVpTq-Uz_7KJyDs-28" style="edgeStyle=orthogonalEdgeStyle;rounded=0;orthogonalLoop=1;jettySize=auto;html=1;entryX=0;entryY=0.75;entryDx=0;entryDy=0;fillColor=#fff2cc;strokeColor=#d6b656;" parent="1" source="m7AmhTVpTq-Uz_7KJyDs-23" target="m7AmhTVpTq-Uz_7KJyDs-27" edge="1">
          <mxGeometry relative="1" as="geometry" />
        </mxCell>
        <mxCell id="m7AmhTVpTq-Uz_7KJyDs-23" value="Waxcloth" style="rounded=0;whiteSpace=wrap;html=1;fillColor=#fff2cc;strokeColor=#d6b656;" parent="1" vertex="1">
          <mxGeometry x="480" y="600" width="80" height="40" as="geometry" />
        </mxCell>
        <mxCell id="m7AmhTVpTq-Uz_7KJyDs-38" style="edgeStyle=orthogonalEdgeStyle;rounded=0;orthogonalLoop=1;jettySize=auto;html=1;entryX=0;entryY=0.75;entryDx=0;entryDy=0;exitX=1;exitY=0.75;exitDx=0;exitDy=0;" parent="1" source="m7AmhTVpTq-Uz_7KJyDs-26" target="m7AmhTVpTq-Uz_7KJyDs-37" edge="1">
          <mxGeometry relative="1" as="geometry">
            <mxPoint x="220" y="20" as="targetPoint" />
            <Array as="points" />
          </mxGeometry>
        </mxCell>
        <mxCell id="m7AmhTVpTq-Uz_7KJyDs-26" value="Fireclay" style="rounded=0;whiteSpace=wrap;html=1;" parent="1" vertex="1">
          <mxGeometry x="240" width="80" height="40" as="geometry" />
        </mxCell>
        <mxCell id="m7AmhTVpTq-Uz_7KJyDs-31" style="edgeStyle=orthogonalEdgeStyle;rounded=0;orthogonalLoop=1;jettySize=auto;html=1;entryX=0.5;entryY=1;entryDx=0;entryDy=0;fillColor=#fff2cc;strokeColor=#d6b656;" parent="1" source="m7AmhTVpTq-Uz_7KJyDs-27" target="m7AmhTVpTq-Uz_7KJyDs-30" edge="1">
          <mxGeometry relative="1" as="geometry" />
        </mxCell>
        <mxCell id="m7AmhTVpTq-Uz_7KJyDs-27" value="Leather Eq." style="rounded=0;whiteSpace=wrap;html=1;fillColor=#fff2cc;strokeColor=#d6b656;" parent="1" vertex="1">
          <mxGeometry x="560" y="320" width="80" height="40" as="geometry" />
        </mxCell>
        <mxCell id="m7AmhTVpTq-Uz_7KJyDs-35" style="edgeStyle=orthogonalEdgeStyle;rounded=0;orthogonalLoop=1;jettySize=auto;html=1;entryX=0;entryY=0.5;entryDx=0;entryDy=0;fillColor=#f5f5f5;strokeColor=#666666;" parent="1" source="m7AmhTVpTq-Uz_7KJyDs-30" target="m7AmhTVpTq-Uz_7KJyDs-33" edge="1">
          <mxGeometry relative="1" as="geometry" />
        </mxCell>
        <mxCell id="m7AmhTVpTq-Uz_7KJyDs-30" value="Crude Bellows" style="rounded=0;whiteSpace=wrap;html=1;fillColor=#f5f5f5;strokeColor=#666666;fontColor=#333333;" parent="1" vertex="1">
          <mxGeometry x="560" y="240" width="80" height="40" as="geometry" />
        </mxCell>
        <mxCell id="m7AmhTVpTq-Uz_7KJyDs-51" style="edgeStyle=orthogonalEdgeStyle;rounded=0;orthogonalLoop=1;jettySize=auto;html=1;entryX=0.5;entryY=1;entryDx=0;entryDy=0;fillColor=#f5f5f5;strokeColor=#666666;" parent="1" source="m7AmhTVpTq-Uz_7KJyDs-33" target="m7AmhTVpTq-Uz_7KJyDs-46" edge="1">
          <mxGeometry relative="1" as="geometry" />
        </mxCell>
        <mxCell id="m7AmhTVpTq-Uz_7KJyDs-33" value="Crude Bellows (Powered)" style="rounded=0;whiteSpace=wrap;html=1;fillColor=#f5f5f5;strokeColor=#666666;fontColor=#333333;" parent="1" vertex="1">
          <mxGeometry x="680" y="240" width="80" height="40" as="geometry" />
        </mxCell>
        <mxCell id="m7AmhTVpTq-Uz_7KJyDs-37" value="Fireclay&lt;br&gt;Bricks" style="rounded=0;whiteSpace=wrap;html=1;" parent="1" vertex="1">
          <mxGeometry x="1400" width="80" height="40" as="geometry" />
        </mxCell>
        <mxCell id="m7AmhTVpTq-Uz_7KJyDs-43" style="edgeStyle=orthogonalEdgeStyle;rounded=0;orthogonalLoop=1;jettySize=auto;html=1;entryX=0;entryY=0.5;entryDx=0;entryDy=0;" parent="1" source="m7AmhTVpTq-Uz_7KJyDs-41" target="m7AmhTVpTq-Uz_7KJyDs-42" edge="1">
          <mxGeometry relative="1" as="geometry" />
        </mxCell>
        <mxCell id="m7AmhTVpTq-Uz_7KJyDs-76" style="edgeStyle=orthogonalEdgeStyle;rounded=0;orthogonalLoop=1;jettySize=auto;html=1;entryX=0;entryY=0.5;entryDx=0;entryDy=0;exitX=1;exitY=0.5;exitDx=0;exitDy=0;" parent="1" source="m7AmhTVpTq-Uz_7KJyDs-41" target="m7AmhTVpTq-Uz_7KJyDs-26" edge="1">
          <mxGeometry relative="1" as="geometry">
            <mxPoint x="280" y="-10" as="targetPoint" />
          </mxGeometry>
        </mxCell>
        <mxCell id="m7AmhTVpTq-Uz_7KJyDs-78" style="edgeStyle=orthogonalEdgeStyle;rounded=0;orthogonalLoop=1;jettySize=auto;html=1;entryX=0;entryY=0.5;entryDx=0;entryDy=0;exitX=1;exitY=0.5;exitDx=0;exitDy=0;" parent="1" source="m7AmhTVpTq-Uz_7KJyDs-41" target="m7AmhTVpTq-Uz_7KJyDs-77" edge="1">
          <mxGeometry relative="1" as="geometry">
            <mxPoint x="220" y="-150" as="sourcePoint" />
          </mxGeometry>
        </mxCell>
        <mxCell id="m7AmhTVpTq-Uz_7KJyDs-41" value="Limeclay" style="rounded=0;whiteSpace=wrap;html=1;" parent="1" vertex="1">
          <mxGeometry x="120" y="-60" width="80" height="40" as="geometry" />
        </mxCell>
        <mxCell id="m7AmhTVpTq-Uz_7KJyDs-49" style="edgeStyle=orthogonalEdgeStyle;rounded=0;orthogonalLoop=1;jettySize=auto;html=1;entryX=0;entryY=0.5;entryDx=0;entryDy=0;fillColor=#f5f5f5;strokeColor=#666666;" parent="1" source="m7AmhTVpTq-Uz_7KJyDs-46" target="m7AmhTVpTq-Uz_7KJyDs-52" edge="1">
          <mxGeometry relative="1" as="geometry">
            <mxPoint x="800" y="180" as="targetPoint" />
          </mxGeometry>
        </mxCell>
        <mxCell id="m7AmhTVpTq-Uz_7KJyDs-46" value="Crude Blast Furnace" style="rounded=0;whiteSpace=wrap;html=1;fillColor=#f5f5f5;strokeColor=#666666;fontColor=#333333;" parent="1" vertex="1">
          <mxGeometry x="680" y="160" width="80" height="40" as="geometry" />
        </mxCell>
        <mxCell id="m7AmhTVpTq-Uz_7KJyDs-93" style="edgeStyle=orthogonalEdgeStyle;rounded=0;orthogonalLoop=1;jettySize=auto;html=1;entryX=0;entryY=0.5;entryDx=0;entryDy=0;fillColor=#f5f5f5;strokeColor=#666666;" parent="1" source="m7AmhTVpTq-Uz_7KJyDs-53" target="m7AmhTVpTq-Uz_7KJyDs-92" edge="1">
          <mxGeometry relative="1" as="geometry" />
        </mxCell>
        <mxCell id="m7AmhTVpTq-Uz_7KJyDs-53" value="Crude Kiln" style="rounded=0;whiteSpace=wrap;html=1;fillColor=#f5f5f5;strokeColor=#666666;fontColor=#333333;" parent="1" vertex="1">
          <mxGeometry x="680" y="80" width="80" height="40" as="geometry" />
        </mxCell>
        <mxCell id="m7AmhTVpTq-Uz_7KJyDs-117" style="edgeStyle=orthogonalEdgeStyle;rounded=0;orthogonalLoop=1;jettySize=auto;html=1;fillColor=#e1d5e7;strokeColor=#9673a6;" parent="1" edge="1">
          <mxGeometry relative="1" as="geometry">
            <mxPoint x="480" y="830" as="targetPoint" />
            <mxPoint x="200" y="829.9999999999998" as="sourcePoint" />
          </mxGeometry>
        </mxCell>
        <mxCell id="m7AmhTVpTq-Uz_7KJyDs-56" value="Galena Ore Gravel" style="rounded=0;whiteSpace=wrap;html=1;fillColor=#e1d5e7;strokeColor=#9673a6;" parent="1" vertex="1">
          <mxGeometry x="120" y="800" width="80" height="40" as="geometry" />
        </mxCell>
        <mxCell id="m7AmhTVpTq-Uz_7KJyDs-121" style="edgeStyle=orthogonalEdgeStyle;rounded=0;orthogonalLoop=1;jettySize=auto;html=1;exitX=1;exitY=0.75;exitDx=0;exitDy=0;entryX=0;entryY=0.75;entryDx=0;entryDy=0;fillColor=#ffe6cc;strokeColor=#d79b00;" parent="1" source="m7AmhTVpTq-Uz_7KJyDs-57" target="m7AmhTVpTq-Uz_7KJyDs-119" edge="1">
          <mxGeometry relative="1" as="geometry" />
        </mxCell>
        <mxCell id="m7AmhTVpTq-Uz_7KJyDs-57" value="&lt;span id=&quot;ref234210&quot;&gt;&lt;/span&gt;Chalcotrichite Ore Gravel" style="rounded=0;whiteSpace=wrap;html=1;fillColor=#ffe6cc;strokeColor=#d79b00;" parent="1" vertex="1">
          <mxGeometry x="120" y="880" width="80" height="40" as="geometry" />
        </mxCell>
        <mxCell id="m7AmhTVpTq-Uz_7KJyDs-122" style="edgeStyle=orthogonalEdgeStyle;rounded=0;orthogonalLoop=1;jettySize=auto;html=1;exitX=1;exitY=0.75;exitDx=0;exitDy=0;entryX=0;entryY=0.75;entryDx=0;entryDy=0;fillColor=#f8cecc;strokeColor=#b85450;" parent="1" source="m7AmhTVpTq-Uz_7KJyDs-69" target="m7AmhTVpTq-Uz_7KJyDs-120" edge="1">
          <mxGeometry relative="1" as="geometry" />
        </mxCell>
        <mxCell id="m7AmhTVpTq-Uz_7KJyDs-69" value="Banded Iron Ore Gravel" style="rounded=0;whiteSpace=wrap;html=1;fillColor=#f8cecc;strokeColor=#b85450;" parent="1" vertex="1">
          <mxGeometry x="120" y="960" width="80" height="40" as="geometry" />
        </mxCell>
        <mxCell id="m7AmhTVpTq-Uz_7KJyDs-151" style="edgeStyle=orthogonalEdgeStyle;rounded=0;orthogonalLoop=1;jettySize=auto;html=1;" parent="1" source="m7AmhTVpTq-Uz_7KJyDs-77" edge="1">
          <mxGeometry relative="1" as="geometry">
            <mxPoint x="600" as="targetPoint" />
          </mxGeometry>
        </mxCell>
        <mxCell id="m7AmhTVpTq-Uz_7KJyDs-77" value="Limestone" style="rounded=0;whiteSpace=wrap;html=1;" parent="1" vertex="1">
          <mxGeometry x="240" y="-120" width="80" height="40" as="geometry" />
        </mxCell>
        <mxCell id="m7AmhTVpTq-Uz_7KJyDs-103" style="edgeStyle=orthogonalEdgeStyle;rounded=0;orthogonalLoop=1;jettySize=auto;html=1;exitX=1;exitY=0.5;exitDx=0;exitDy=0;entryX=0;entryY=0.25;entryDx=0;entryDy=0;" parent="1" source="m7AmhTVpTq-Uz_7KJyDs-42" target="m7AmhTVpTq-Uz_7KJyDs-37" edge="1">
          <mxGeometry relative="1" as="geometry">
            <mxPoint x="800" y="10" as="targetPoint" />
            <Array as="points">
              <mxPoint x="340" y="-40" />
              <mxPoint x="340" y="10" />
            </Array>
          </mxGeometry>
        </mxCell>
        <mxCell id="m7AmhTVpTq-Uz_7KJyDs-104" style="edgeStyle=orthogonalEdgeStyle;rounded=0;orthogonalLoop=1;jettySize=auto;html=1;" parent="1" source="m7AmhTVpTq-Uz_7KJyDs-42" edge="1">
          <mxGeometry relative="1" as="geometry">
            <mxPoint x="360" y="-40" as="targetPoint" />
          </mxGeometry>
        </mxCell>
        <mxCell id="m7AmhTVpTq-Uz_7KJyDs-42" value="Cement" style="rounded=0;whiteSpace=wrap;html=1;" parent="1" vertex="1">
          <mxGeometry x="240" y="-60" width="80" height="40" as="geometry" />
        </mxCell>
        <mxCell id="m7AmhTVpTq-Uz_7KJyDs-102" style="edgeStyle=orthogonalEdgeStyle;rounded=0;orthogonalLoop=1;jettySize=auto;html=1;entryX=0;entryY=0.5;entryDx=0;entryDy=0;fillColor=#f5f5f5;strokeColor=#666666;" parent="1" source="m7AmhTVpTq-Uz_7KJyDs-92" target="m7AmhTVpTq-Uz_7KJyDs-37" edge="1">
          <mxGeometry relative="1" as="geometry">
            <Array as="points">
              <mxPoint x="840" y="20" />
            </Array>
          </mxGeometry>
        </mxCell>
        <mxCell id="m7AmhTVpTq-Uz_7KJyDs-138" style="edgeStyle=orthogonalEdgeStyle;rounded=0;orthogonalLoop=1;jettySize=auto;html=1;fillColor=#f5f5f5;strokeColor=#666666;" parent="1" source="m7AmhTVpTq-Uz_7KJyDs-92" edge="1">
          <mxGeometry relative="1" as="geometry">
            <mxPoint x="840" y="160" as="targetPoint" />
          </mxGeometry>
        </mxCell>
        <mxCell id="m7AmhTVpTq-Uz_7KJyDs-160" style="edgeStyle=orthogonalEdgeStyle;rounded=0;orthogonalLoop=1;jettySize=auto;html=1;fillColor=#f5f5f5;strokeColor=#666666;" parent="1" source="m7AmhTVpTq-Uz_7KJyDs-92" target="m7AmhTVpTq-Uz_7KJyDs-162" edge="1">
          <mxGeometry relative="1" as="geometry">
            <mxPoint x="1360" y="970" as="targetPoint" />
            <Array as="points">
              <mxPoint x="1340" y="100" />
              <mxPoint x="1340" y="970" />
            </Array>
          </mxGeometry>
        </mxCell>
        <mxCell id="m7AmhTVpTq-Uz_7KJyDs-92" value="Kiln (Smelting)" style="rounded=0;whiteSpace=wrap;html=1;fillColor=#f5f5f5;strokeColor=#666666;fontColor=#333333;" parent="1" vertex="1">
          <mxGeometry x="800" y="80" width="80" height="40" as="geometry" />
        </mxCell>
        <mxCell id="m7AmhTVpTq-Uz_7KJyDs-97" style="edgeStyle=orthogonalEdgeStyle;rounded=0;orthogonalLoop=1;jettySize=auto;html=1;entryX=0;entryY=0.5;entryDx=0;entryDy=0;" parent="1" source="m7AmhTVpTq-Uz_7KJyDs-94" target="m7AmhTVpTq-Uz_7KJyDs-98" edge="1">
          <mxGeometry relative="1" as="geometry">
            <mxPoint x="230" y="100" as="targetPoint" />
          </mxGeometry>
        </mxCell>
        <mxCell id="m7AmhTVpTq-Uz_7KJyDs-94" value="Clay" style="rounded=0;whiteSpace=wrap;html=1;fillColor=#bac8d3;strokeColor=#23445d;" parent="1" vertex="1">
          <mxGeometry x="120" y="80" width="80" height="40" as="geometry" />
        </mxCell>
        <mxCell id="m7AmhTVpTq-Uz_7KJyDs-99" style="edgeStyle=orthogonalEdgeStyle;rounded=0;orthogonalLoop=1;jettySize=auto;html=1;fillColor=#d5e8d4;strokeColor=#82b366;" parent="1" source="m7AmhTVpTq-Uz_7KJyDs-96" edge="1">
          <mxGeometry relative="1" as="geometry">
            <mxPoint x="680" y="190" as="targetPoint" />
            <Array as="points">
              <mxPoint x="680" y="190" />
            </Array>
          </mxGeometry>
        </mxCell>
        <mxCell id="m7AmhTVpTq-Uz_7KJyDs-192" style="edgeStyle=orthogonalEdgeStyle;rounded=0;orthogonalLoop=1;jettySize=auto;html=1;exitX=1;exitY=0.25;exitDx=0;exitDy=0;entryX=0;entryY=0.75;entryDx=0;entryDy=0;fillColor=#d5e8d4;strokeColor=#82b366;" parent="1" source="m7AmhTVpTq-Uz_7KJyDs-96" target="m7AmhTVpTq-Uz_7KJyDs-53" edge="1">
          <mxGeometry relative="1" as="geometry">
            <Array as="points">
              <mxPoint x="360" y="190" />
              <mxPoint x="660" y="190" />
              <mxPoint x="660" y="110" />
            </Array>
          </mxGeometry>
        </mxCell>
        <mxCell id="m7AmhTVpTq-Uz_7KJyDs-96" value="Charcoal" style="rounded=0;whiteSpace=wrap;html=1;fillColor=#d5e8d4;strokeColor=#82b366;" parent="1" vertex="1">
          <mxGeometry x="280" y="160" width="80" height="40" as="geometry" />
        </mxCell>
        <mxCell id="m7AmhTVpTq-Uz_7KJyDs-100" style="edgeStyle=orthogonalEdgeStyle;rounded=0;orthogonalLoop=1;jettySize=auto;html=1;fillColor=#bac8d3;strokeColor=#23445d;" parent="1" source="m7AmhTVpTq-Uz_7KJyDs-98" edge="1">
          <mxGeometry relative="1" as="geometry">
            <mxPoint x="680" y="90" as="targetPoint" />
            <Array as="points">
              <mxPoint x="500" y="90" />
              <mxPoint x="500" y="90" />
            </Array>
          </mxGeometry>
        </mxCell>
        <mxCell id="m7AmhTVpTq-Uz_7KJyDs-193" style="edgeStyle=orthogonalEdgeStyle;rounded=0;orthogonalLoop=1;jettySize=auto;html=1;exitX=1;exitY=0.75;exitDx=0;exitDy=0;entryX=0;entryY=0.25;entryDx=0;entryDy=0;fillColor=#bac8d3;strokeColor=#23445d;" parent="1" source="m7AmhTVpTq-Uz_7KJyDs-98" target="m7AmhTVpTq-Uz_7KJyDs-46" edge="1">
          <mxGeometry relative="1" as="geometry">
            <Array as="points">
              <mxPoint x="320" y="90" />
              <mxPoint x="640" y="90" />
              <mxPoint x="640" y="170" />
            </Array>
          </mxGeometry>
        </mxCell>
        <mxCell id="m7AmhTVpTq-Uz_7KJyDs-98" value="Bricks" style="rounded=0;whiteSpace=wrap;html=1;fillColor=#bac8d3;strokeColor=#23445d;" parent="1" vertex="1">
          <mxGeometry x="240" y="80" width="80" height="40" as="geometry" />
        </mxCell>
        <mxCell id="m7AmhTVpTq-Uz_7KJyDs-105" value="Concrete" style="rounded=0;whiteSpace=wrap;html=1;" parent="1" vertex="1">
          <mxGeometry x="360" y="-60" width="80" height="40" as="geometry" />
        </mxCell>
        <mxCell id="m7AmhTVpTq-Uz_7KJyDs-106" value="" style="endArrow=none;html=1;rounded=0;" parent="1" edge="1">
          <mxGeometry width="50" height="50" relative="1" as="geometry">
            <mxPoint x="260" y="319.31" as="sourcePoint" />
            <mxPoint x="300" y="319.31" as="targetPoint" />
          </mxGeometry>
        </mxCell>
        <mxCell id="m7AmhTVpTq-Uz_7KJyDs-107" value="" style="endArrow=none;html=1;rounded=0;" parent="1" edge="1">
          <mxGeometry width="50" height="50" relative="1" as="geometry">
            <mxPoint x="250" y="309.31" as="sourcePoint" />
            <mxPoint x="260" y="319.31" as="targetPoint" />
          </mxGeometry>
        </mxCell>
        <mxCell id="m7AmhTVpTq-Uz_7KJyDs-108" value="" style="endArrow=none;html=1;rounded=0;" parent="1" edge="1">
          <mxGeometry width="50" height="50" relative="1" as="geometry">
            <mxPoint x="260" y="319.31" as="sourcePoint" />
            <mxPoint x="310" y="309.31" as="targetPoint" />
            <Array as="points">
              <mxPoint x="300" y="319.31" />
            </Array>
          </mxGeometry>
        </mxCell>
        <mxCell id="m7AmhTVpTq-Uz_7KJyDs-109" value="" style="endArrow=none;html=1;rounded=0;" parent="1" edge="1">
          <mxGeometry width="50" height="50" relative="1" as="geometry">
            <mxPoint x="260" y="719.52" as="sourcePoint" />
            <mxPoint x="300" y="719.52" as="targetPoint" />
          </mxGeometry>
        </mxCell>
        <mxCell id="m7AmhTVpTq-Uz_7KJyDs-110" value="" style="endArrow=none;html=1;rounded=0;" parent="1" edge="1">
          <mxGeometry width="50" height="50" relative="1" as="geometry">
            <mxPoint x="250" y="730" as="sourcePoint" />
            <mxPoint x="260" y="719.52" as="targetPoint" />
          </mxGeometry>
        </mxCell>
        <mxCell id="m7AmhTVpTq-Uz_7KJyDs-111" value="" style="endArrow=none;html=1;rounded=0;" parent="1" edge="1">
          <mxGeometry width="50" height="50" relative="1" as="geometry">
            <mxPoint x="260" y="719.52" as="sourcePoint" />
            <mxPoint x="310" y="730" as="targetPoint" />
            <Array as="points">
              <mxPoint x="300" y="719.52" />
            </Array>
          </mxGeometry>
        </mxCell>
        <mxCell id="m7AmhTVpTq-Uz_7KJyDs-112" value="" style="endArrow=classic;html=1;rounded=0;entryX=0.5;entryY=0;entryDx=0;entryDy=0;fillColor=#d5e8d4;strokeColor=#82b366;" parent="1" edge="1">
          <mxGeometry width="50" height="50" relative="1" as="geometry">
            <mxPoint x="270" y="720" as="sourcePoint" />
            <mxPoint x="270" y="759.9999999999998" as="targetPoint" />
          </mxGeometry>
        </mxCell>
        <mxCell id="m7AmhTVpTq-Uz_7KJyDs-123" style="edgeStyle=orthogonalEdgeStyle;rounded=0;orthogonalLoop=1;jettySize=auto;html=1;exitX=0.75;exitY=1;exitDx=0;exitDy=0;entryX=0;entryY=0.25;entryDx=0;entryDy=0;fillColor=#f5f5f5;strokeColor=#666666;" parent="1" source="m7AmhTVpTq-Uz_7KJyDs-114" target="m7AmhTVpTq-Uz_7KJyDs-118" edge="1">
          <mxGeometry relative="1" as="geometry">
            <Array as="points">
              <mxPoint x="420" y="810" />
            </Array>
          </mxGeometry>
        </mxCell>
        <mxCell id="m7AmhTVpTq-Uz_7KJyDs-124" style="edgeStyle=orthogonalEdgeStyle;rounded=0;orthogonalLoop=1;jettySize=auto;html=1;entryX=0;entryY=0.25;entryDx=0;entryDy=0;fillColor=#f5f5f5;strokeColor=#666666;" parent="1" source="m7AmhTVpTq-Uz_7KJyDs-114" target="m7AmhTVpTq-Uz_7KJyDs-119" edge="1">
          <mxGeometry relative="1" as="geometry">
            <Array as="points">
              <mxPoint x="400" y="890" />
            </Array>
          </mxGeometry>
        </mxCell>
        <mxCell id="m7AmhTVpTq-Uz_7KJyDs-125" style="edgeStyle=orthogonalEdgeStyle;rounded=0;orthogonalLoop=1;jettySize=auto;html=1;exitX=0.25;exitY=1;exitDx=0;exitDy=0;entryX=0;entryY=0.25;entryDx=0;entryDy=0;fillColor=#f5f5f5;strokeColor=#666666;" parent="1" source="m7AmhTVpTq-Uz_7KJyDs-114" target="m7AmhTVpTq-Uz_7KJyDs-120" edge="1">
          <mxGeometry relative="1" as="geometry" />
        </mxCell>
        <mxCell id="m7AmhTVpTq-Uz_7KJyDs-114" value="Sluice (Flowing)" style="rounded=0;whiteSpace=wrap;html=1;fillColor=#f5f5f5;strokeColor=#666666;fontColor=#333333;" parent="1" vertex="1">
          <mxGeometry x="360" y="760" width="80" height="40" as="geometry" />
        </mxCell>
        <mxCell id="m7AmhTVpTq-Uz_7KJyDs-141" style="edgeStyle=orthogonalEdgeStyle;rounded=0;orthogonalLoop=1;jettySize=auto;html=1;exitX=1;exitY=0.75;exitDx=0;exitDy=0;entryX=0;entryY=0.75;entryDx=0;entryDy=0;fillColor=#e1d5e7;strokeColor=#9673a6;" parent="1" source="m7AmhTVpTq-Uz_7KJyDs-118" target="m7AmhTVpTq-Uz_7KJyDs-127" edge="1">
          <mxGeometry relative="1" as="geometry" />
        </mxCell>
        <mxCell id="m7AmhTVpTq-Uz_7KJyDs-159" style="edgeStyle=orthogonalEdgeStyle;rounded=0;orthogonalLoop=1;jettySize=auto;html=1;entryX=0;entryY=0.25;entryDx=0;entryDy=0;fillColor=#e1d5e7;strokeColor=#9673a6;" parent="1" source="m7AmhTVpTq-Uz_7KJyDs-118" target="m7AmhTVpTq-Uz_7KJyDs-157" edge="1">
          <mxGeometry relative="1" as="geometry">
            <Array as="points">
              <mxPoint x="520" y="780" />
            </Array>
          </mxGeometry>
        </mxCell>
        <mxCell id="m7AmhTVpTq-Uz_7KJyDs-118" value="Raw Galena" style="rounded=0;whiteSpace=wrap;html=1;fillColor=#e1d5e7;strokeColor=#9673a6;" parent="1" vertex="1">
          <mxGeometry x="480" y="800" width="80" height="40" as="geometry" />
        </mxCell>
        <mxCell id="m7AmhTVpTq-Uz_7KJyDs-142" style="edgeStyle=orthogonalEdgeStyle;rounded=0;orthogonalLoop=1;jettySize=auto;html=1;exitX=1;exitY=0.75;exitDx=0;exitDy=0;entryX=0;entryY=0.75;entryDx=0;entryDy=0;fillColor=#ffe6cc;strokeColor=#d79b00;" parent="1" source="m7AmhTVpTq-Uz_7KJyDs-119" target="m7AmhTVpTq-Uz_7KJyDs-128" edge="1">
          <mxGeometry relative="1" as="geometry" />
        </mxCell>
        <mxCell id="m7AmhTVpTq-Uz_7KJyDs-158" style="edgeStyle=orthogonalEdgeStyle;rounded=0;orthogonalLoop=1;jettySize=auto;html=1;entryX=0;entryY=0.25;entryDx=0;entryDy=0;fillColor=#ffe6cc;strokeColor=#d79b00;" parent="1" source="m7AmhTVpTq-Uz_7KJyDs-119" target="m7AmhTVpTq-Uz_7KJyDs-156" edge="1">
          <mxGeometry relative="1" as="geometry">
            <Array as="points">
              <mxPoint x="520" y="860" />
              <mxPoint x="1240" y="860" />
            </Array>
          </mxGeometry>
        </mxCell>
        <mxCell id="m7AmhTVpTq-Uz_7KJyDs-119" value="Raw &lt;span id=&quot;ref234210&quot;&gt;&lt;/span&gt;Chalcotrichite" style="rounded=0;whiteSpace=wrap;html=1;fillColor=#ffe6cc;strokeColor=#d79b00;" parent="1" vertex="1">
          <mxGeometry x="480" y="880" width="80" height="40" as="geometry" />
        </mxCell>
        <mxCell id="m7AmhTVpTq-Uz_7KJyDs-154" style="edgeStyle=orthogonalEdgeStyle;rounded=0;orthogonalLoop=1;jettySize=auto;html=1;exitX=1;exitY=0.75;exitDx=0;exitDy=0;entryX=0;entryY=0.75;entryDx=0;entryDy=0;fillColor=#f8cecc;strokeColor=#b85450;" parent="1" source="m7AmhTVpTq-Uz_7KJyDs-120" target="m7AmhTVpTq-Uz_7KJyDs-153" edge="1">
          <mxGeometry relative="1" as="geometry" />
        </mxCell>
        <mxCell id="m7AmhTVpTq-Uz_7KJyDs-120" value="Raw Banded Iron" style="rounded=0;whiteSpace=wrap;html=1;fillColor=#f8cecc;strokeColor=#b85450;" parent="1" vertex="1">
          <mxGeometry x="480" y="960" width="80" height="40" as="geometry" />
        </mxCell>
        <mxCell id="m7AmhTVpTq-Uz_7KJyDs-155" style="edgeStyle=orthogonalEdgeStyle;rounded=0;orthogonalLoop=1;jettySize=auto;html=1;entryX=0;entryY=0.5;entryDx=0;entryDy=0;fillColor=#f5f5f5;strokeColor=#666666;" parent="1" source="m7AmhTVpTq-Uz_7KJyDs-52" target="m7AmhTVpTq-Uz_7KJyDs-153" edge="1">
          <mxGeometry relative="1" as="geometry" />
        </mxCell>
        <mxCell id="m7AmhTVpTq-Uz_7KJyDs-163" style="edgeStyle=orthogonalEdgeStyle;rounded=0;orthogonalLoop=1;jettySize=auto;html=1;entryX=0;entryY=0.75;entryDx=0;entryDy=0;fillColor=#f5f5f5;strokeColor=#666666;" parent="1" source="m7AmhTVpTq-Uz_7KJyDs-52" target="m7AmhTVpTq-Uz_7KJyDs-157" edge="1">
          <mxGeometry relative="1" as="geometry" />
        </mxCell>
        <mxCell id="m7AmhTVpTq-Uz_7KJyDs-164" style="edgeStyle=orthogonalEdgeStyle;rounded=0;orthogonalLoop=1;jettySize=auto;html=1;entryX=0;entryY=0.75;entryDx=0;entryDy=0;fillColor=#f5f5f5;strokeColor=#666666;" parent="1" source="m7AmhTVpTq-Uz_7KJyDs-52" target="m7AmhTVpTq-Uz_7KJyDs-156" edge="1">
          <mxGeometry relative="1" as="geometry" />
        </mxCell>
        <mxCell id="m7AmhTVpTq-Uz_7KJyDs-52" value="Blast Furnace (Smelting)" style="rounded=0;whiteSpace=wrap;html=1;fillColor=#f5f5f5;strokeColor=#666666;fontColor=#333333;" parent="1" vertex="1">
          <mxGeometry x="1120" y="160" width="80" height="40" as="geometry" />
        </mxCell>
        <mxCell id="m7AmhTVpTq-Uz_7KJyDs-144" style="edgeStyle=orthogonalEdgeStyle;rounded=0;orthogonalLoop=1;jettySize=auto;html=1;entryX=0;entryY=0.5;entryDx=0;entryDy=0;fillColor=#ffe6cc;strokeColor=#d79b00;" parent="1" target="m7AmhTVpTq-Uz_7KJyDs-143" edge="1">
          <mxGeometry relative="1" as="geometry">
            <mxPoint x="960.0000000000002" y="899.9999999999998" as="sourcePoint" />
          </mxGeometry>
        </mxCell>
        <mxCell id="m7AmhTVpTq-Uz_7KJyDs-127" value="Impure Lead Ingot" style="rounded=0;whiteSpace=wrap;html=1;fillColor=#e1d5e7;strokeColor=#9673a6;" parent="1" vertex="1">
          <mxGeometry x="880" y="800" width="80" height="40" as="geometry" />
        </mxCell>
        <mxCell id="m7AmhTVpTq-Uz_7KJyDs-171" style="edgeStyle=orthogonalEdgeStyle;rounded=0;orthogonalLoop=1;jettySize=auto;html=1;fillColor=#ffe6cc;strokeColor=#d79b00;" parent="1" source="m7AmhTVpTq-Uz_7KJyDs-128" edge="1">
          <mxGeometry relative="1" as="geometry">
            <mxPoint x="920.0000000000002" y="959.9999999999998" as="targetPoint" />
          </mxGeometry>
        </mxCell>
        <mxCell id="m7AmhTVpTq-Uz_7KJyDs-128" value="Impure Copper Ingot" style="rounded=0;whiteSpace=wrap;html=1;fillColor=#ffe6cc;strokeColor=#d79b00;" parent="1" vertex="1">
          <mxGeometry x="880" y="880" width="80" height="40" as="geometry" />
        </mxCell>
        <mxCell id="m7AmhTVpTq-Uz_7KJyDs-132" value="" style="endArrow=none;html=1;rounded=0;" parent="1" edge="1">
          <mxGeometry width="50" height="50" relative="1" as="geometry">
            <mxPoint x="820" y="159.52" as="sourcePoint" />
            <mxPoint x="860" y="159.52" as="targetPoint" />
          </mxGeometry>
        </mxCell>
        <mxCell id="m7AmhTVpTq-Uz_7KJyDs-133" value="" style="endArrow=none;html=1;rounded=0;" parent="1" edge="1">
          <mxGeometry width="50" height="50" relative="1" as="geometry">
            <mxPoint x="810" y="149.52" as="sourcePoint" />
            <mxPoint x="820" y="159.52" as="targetPoint" />
          </mxGeometry>
        </mxCell>
        <mxCell id="m7AmhTVpTq-Uz_7KJyDs-134" value="" style="endArrow=none;html=1;rounded=0;" parent="1" edge="1">
          <mxGeometry width="50" height="50" relative="1" as="geometry">
            <mxPoint x="820" y="159.52" as="sourcePoint" />
            <mxPoint x="870" y="149.52" as="targetPoint" />
            <Array as="points">
              <mxPoint x="860" y="159.52" />
            </Array>
          </mxGeometry>
        </mxCell>
        <mxCell id="m7AmhTVpTq-Uz_7KJyDs-135" value="" style="endArrow=none;html=1;rounded=0;" parent="1" edge="1">
          <mxGeometry width="50" height="50" relative="1" as="geometry">
            <mxPoint x="820" y="200" as="sourcePoint" />
            <mxPoint x="860" y="200" as="targetPoint" />
          </mxGeometry>
        </mxCell>
        <mxCell id="m7AmhTVpTq-Uz_7KJyDs-136" value="" style="endArrow=none;html=1;rounded=0;" parent="1" edge="1">
          <mxGeometry width="50" height="50" relative="1" as="geometry">
            <mxPoint x="810" y="210.48000000000002" as="sourcePoint" />
            <mxPoint x="820" y="200" as="targetPoint" />
          </mxGeometry>
        </mxCell>
        <mxCell id="m7AmhTVpTq-Uz_7KJyDs-137" value="" style="endArrow=none;html=1;rounded=0;" parent="1" edge="1">
          <mxGeometry width="50" height="50" relative="1" as="geometry">
            <mxPoint x="820" y="200" as="sourcePoint" />
            <mxPoint x="870" y="210.48000000000002" as="targetPoint" />
            <Array as="points">
              <mxPoint x="860" y="200" />
            </Array>
          </mxGeometry>
        </mxCell>
        <mxCell id="m7AmhTVpTq-Uz_7KJyDs-139" value="" style="endArrow=classic;html=1;rounded=0;entryX=0;entryY=0.25;entryDx=0;entryDy=0;fillColor=#f5f5f5;strokeColor=#666666;" parent="1" target="m7AmhTVpTq-Uz_7KJyDs-127" edge="1">
          <mxGeometry width="50" height="50" relative="1" as="geometry">
            <mxPoint x="840" y="210" as="sourcePoint" />
            <mxPoint x="840" y="810.952380952381" as="targetPoint" />
            <Array as="points">
              <mxPoint x="840" y="810" />
            </Array>
          </mxGeometry>
        </mxCell>
        <mxCell id="m7AmhTVpTq-Uz_7KJyDs-140" value="" style="endArrow=classic;html=1;rounded=0;entryX=0;entryY=0.25;entryDx=0;entryDy=0;fillColor=#f5f5f5;strokeColor=#666666;" parent="1" target="m7AmhTVpTq-Uz_7KJyDs-128" edge="1">
          <mxGeometry width="50" height="50" relative="1" as="geometry">
            <mxPoint x="840" y="200" as="sourcePoint" />
            <mxPoint x="770" y="760" as="targetPoint" />
            <Array as="points">
              <mxPoint x="840" y="890" />
            </Array>
          </mxGeometry>
        </mxCell>
        <mxCell id="m7AmhTVpTq-Uz_7KJyDs-143" value="Copper Tools" style="rounded=0;whiteSpace=wrap;html=1;fillColor=#ffe6cc;strokeColor=#d79b00;" parent="1" vertex="1">
          <mxGeometry x="1000" y="880" width="80" height="40" as="geometry" />
        </mxCell>
        <mxCell id="m7AmhTVpTq-Uz_7KJyDs-145" value="" style="endArrow=none;html=1;rounded=0;" parent="1" edge="1">
          <mxGeometry width="50" height="50" relative="1" as="geometry">
            <mxPoint x="580" y="-0.6899999999999977" as="sourcePoint" />
            <mxPoint x="620" y="-0.6899999999999977" as="targetPoint" />
          </mxGeometry>
        </mxCell>
        <mxCell id="m7AmhTVpTq-Uz_7KJyDs-146" value="" style="endArrow=none;html=1;rounded=0;" parent="1" edge="1">
          <mxGeometry width="50" height="50" relative="1" as="geometry">
            <mxPoint x="570" y="-10.689999999999998" as="sourcePoint" />
            <mxPoint x="580" y="-0.6899999999999977" as="targetPoint" />
          </mxGeometry>
        </mxCell>
        <mxCell id="m7AmhTVpTq-Uz_7KJyDs-147" value="" style="endArrow=none;html=1;rounded=0;" parent="1" edge="1">
          <mxGeometry width="50" height="50" relative="1" as="geometry">
            <mxPoint x="580" y="-0.6899999999999977" as="sourcePoint" />
            <mxPoint x="630" y="-10.689999999999998" as="targetPoint" />
            <Array as="points">
              <mxPoint x="620" y="-0.6899999999999977" />
            </Array>
          </mxGeometry>
        </mxCell>
        <mxCell id="m7AmhTVpTq-Uz_7KJyDs-148" value="" style="endArrow=none;html=1;rounded=0;" parent="1" edge="1">
          <mxGeometry width="50" height="50" relative="1" as="geometry">
            <mxPoint x="580" y="920" as="sourcePoint" />
            <mxPoint x="620" y="920" as="targetPoint" />
          </mxGeometry>
        </mxCell>
        <mxCell id="m7AmhTVpTq-Uz_7KJyDs-149" value="" style="endArrow=none;html=1;rounded=0;" parent="1" edge="1">
          <mxGeometry width="50" height="50" relative="1" as="geometry">
            <mxPoint x="570" y="930.48" as="sourcePoint" />
            <mxPoint x="580" y="920" as="targetPoint" />
          </mxGeometry>
        </mxCell>
        <mxCell id="m7AmhTVpTq-Uz_7KJyDs-150" value="" style="endArrow=none;html=1;rounded=0;" parent="1" edge="1">
          <mxGeometry width="50" height="50" relative="1" as="geometry">
            <mxPoint x="580" y="920" as="sourcePoint" />
            <mxPoint x="630" y="930.48" as="targetPoint" />
            <Array as="points">
              <mxPoint x="620" y="920" />
            </Array>
          </mxGeometry>
        </mxCell>
        <mxCell id="m7AmhTVpTq-Uz_7KJyDs-152" value="" style="endArrow=classic;html=1;rounded=0;entryX=0;entryY=0.25;entryDx=0;entryDy=0;" parent="1" target="m7AmhTVpTq-Uz_7KJyDs-153" edge="1">
          <mxGeometry width="50" height="50" relative="1" as="geometry">
            <mxPoint x="600" y="920" as="sourcePoint" />
            <mxPoint x="680" y="1010" as="targetPoint" />
            <Array as="points">
              <mxPoint x="600" y="970" />
            </Array>
          </mxGeometry>
        </mxCell>
        <mxCell id="m7AmhTVpTq-Uz_7KJyDs-161" style="edgeStyle=orthogonalEdgeStyle;rounded=0;orthogonalLoop=1;jettySize=auto;html=1;exitX=1;exitY=0.75;exitDx=0;exitDy=0;fillColor=#f8cecc;strokeColor=#b85450;entryX=0;entryY=0.75;entryDx=0;entryDy=0;" parent="1" source="m7AmhTVpTq-Uz_7KJyDs-153" target="m7AmhTVpTq-Uz_7KJyDs-162" edge="1">
          <mxGeometry relative="1" as="geometry">
            <mxPoint x="1360" y="989.9655172413795" as="targetPoint" />
          </mxGeometry>
        </mxCell>
        <mxCell id="m7AmhTVpTq-Uz_7KJyDs-153" value="Pig Iron Ingot" style="rounded=0;whiteSpace=wrap;html=1;fillColor=#f8cecc;strokeColor=#b85450;" parent="1" vertex="1">
          <mxGeometry x="1240" y="960" width="80" height="40" as="geometry" />
        </mxCell>
        <mxCell id="m7AmhTVpTq-Uz_7KJyDs-156" value="Copper Ingot" style="rounded=0;whiteSpace=wrap;html=1;fillColor=#ffe6cc;strokeColor=#d79b00;" parent="1" vertex="1">
          <mxGeometry x="1400" y="850" width="80" height="40" as="geometry" />
        </mxCell>
        <mxCell id="m7AmhTVpTq-Uz_7KJyDs-157" value="Lead Ingot" style="rounded=0;whiteSpace=wrap;html=1;fillColor=#e1d5e7;strokeColor=#9673a6;" parent="1" vertex="1">
          <mxGeometry x="1400" y="770" width="80" height="40" as="geometry" />
        </mxCell>
        <mxCell id="m7AmhTVpTq-Uz_7KJyDs-189" style="edgeStyle=orthogonalEdgeStyle;rounded=0;orthogonalLoop=1;jettySize=auto;html=1;entryX=0.5;entryY=0;entryDx=0;entryDy=0;fillColor=#f8cecc;strokeColor=#b85450;" parent="1" source="m7AmhTVpTq-Uz_7KJyDs-162" target="m7AmhTVpTq-Uz_7KJyDs-187" edge="1">
          <mxGeometry relative="1" as="geometry" />
        </mxCell>
        <mxCell id="m7AmhTVpTq-Uz_7KJyDs-162" value="Wrought Iron Ingot" style="rounded=0;whiteSpace=wrap;html=1;fillColor=#f8cecc;strokeColor=#b85450;" parent="1" vertex="1">
          <mxGeometry x="1400" y="960" width="80" height="40" as="geometry" />
        </mxCell>
        <mxCell id="m7AmhTVpTq-Uz_7KJyDs-165" value="" style="endArrow=none;html=1;rounded=0;" parent="1" edge="1">
          <mxGeometry width="50" height="50" relative="1" as="geometry">
            <mxPoint x="900" y="959.52" as="sourcePoint" />
            <mxPoint x="940" y="959.52" as="targetPoint" />
          </mxGeometry>
        </mxCell>
        <mxCell id="m7AmhTVpTq-Uz_7KJyDs-166" value="" style="endArrow=none;html=1;rounded=0;" parent="1" edge="1">
          <mxGeometry width="50" height="50" relative="1" as="geometry">
            <mxPoint x="890" y="949.52" as="sourcePoint" />
            <mxPoint x="900" y="959.52" as="targetPoint" />
          </mxGeometry>
        </mxCell>
        <mxCell id="m7AmhTVpTq-Uz_7KJyDs-167" value="" style="endArrow=none;html=1;rounded=0;" parent="1" edge="1">
          <mxGeometry width="50" height="50" relative="1" as="geometry">
            <mxPoint x="900" y="959.52" as="sourcePoint" />
            <mxPoint x="950" y="949.52" as="targetPoint" />
            <Array as="points">
              <mxPoint x="940" y="959.52" />
            </Array>
          </mxGeometry>
        </mxCell>
        <mxCell id="m7AmhTVpTq-Uz_7KJyDs-168" value="" style="endArrow=none;html=1;rounded=0;" parent="1" edge="1">
          <mxGeometry width="50" height="50" relative="1" as="geometry">
            <mxPoint x="900" y="1000" as="sourcePoint" />
            <mxPoint x="940" y="1000" as="targetPoint" />
          </mxGeometry>
        </mxCell>
        <mxCell id="m7AmhTVpTq-Uz_7KJyDs-169" value="" style="endArrow=none;html=1;rounded=0;" parent="1" edge="1">
          <mxGeometry width="50" height="50" relative="1" as="geometry">
            <mxPoint x="890" y="1010.48" as="sourcePoint" />
            <mxPoint x="900" y="1000" as="targetPoint" />
          </mxGeometry>
        </mxCell>
        <mxCell id="m7AmhTVpTq-Uz_7KJyDs-170" value="" style="endArrow=none;html=1;rounded=0;" parent="1" edge="1">
          <mxGeometry width="50" height="50" relative="1" as="geometry">
            <mxPoint x="900" y="1000" as="sourcePoint" />
            <mxPoint x="950" y="1010.48" as="targetPoint" />
            <Array as="points">
              <mxPoint x="940" y="1000" />
            </Array>
          </mxGeometry>
        </mxCell>
        <mxCell id="m7AmhTVpTq-Uz_7KJyDs-172" value="" style="endArrow=none;html=1;rounded=0;" parent="1" edge="1">
          <mxGeometry width="50" height="50" relative="1" as="geometry">
            <mxPoint x="260" y="1000" as="sourcePoint" />
            <mxPoint x="300" y="1000" as="targetPoint" />
          </mxGeometry>
        </mxCell>
        <mxCell id="m7AmhTVpTq-Uz_7KJyDs-173" value="" style="endArrow=none;html=1;rounded=0;" parent="1" edge="1">
          <mxGeometry width="50" height="50" relative="1" as="geometry">
            <mxPoint x="250" y="1010.48" as="sourcePoint" />
            <mxPoint x="260" y="1000" as="targetPoint" />
          </mxGeometry>
        </mxCell>
        <mxCell id="m7AmhTVpTq-Uz_7KJyDs-174" value="" style="endArrow=none;html=1;rounded=0;" parent="1" edge="1">
          <mxGeometry width="50" height="50" relative="1" as="geometry">
            <mxPoint x="260" y="1000" as="sourcePoint" />
            <mxPoint x="310" y="1010.48" as="targetPoint" />
            <Array as="points">
              <mxPoint x="300" y="1000" />
            </Array>
          </mxGeometry>
        </mxCell>
        <mxCell id="m7AmhTVpTq-Uz_7KJyDs-176" value="" style="endArrow=classic;html=1;rounded=0;entryX=0;entryY=0.75;entryDx=0;entryDy=0;fillColor=#d5e8d4;strokeColor=#82b366;" parent="1" target="m7AmhTVpTq-Uz_7KJyDs-178" edge="1">
          <mxGeometry width="50" height="50" relative="1" as="geometry">
            <mxPoint x="290" y="1000" as="sourcePoint" />
            <mxPoint x="290" y="1039.9999999999998" as="targetPoint" />
            <Array as="points">
              <mxPoint x="290" y="1070" />
            </Array>
          </mxGeometry>
        </mxCell>
        <mxCell id="m7AmhTVpTq-Uz_7KJyDs-188" style="edgeStyle=orthogonalEdgeStyle;rounded=0;orthogonalLoop=1;jettySize=auto;html=1;entryX=0;entryY=0.5;entryDx=0;entryDy=0;fillColor=#f5f5f5;strokeColor=#666666;" parent="1" source="m7AmhTVpTq-Uz_7KJyDs-178" target="m7AmhTVpTq-Uz_7KJyDs-187" edge="1">
          <mxGeometry relative="1" as="geometry" />
        </mxCell>
        <mxCell id="m7AmhTVpTq-Uz_7KJyDs-178" value="Trip Hammer (Powered)" style="rounded=0;whiteSpace=wrap;html=1;fillColor=#f5f5f5;strokeColor=#666666;fontColor=#333333;" parent="1" vertex="1">
          <mxGeometry x="880" y="1040" width="80" height="40" as="geometry" />
        </mxCell>
        <mxCell id="m7AmhTVpTq-Uz_7KJyDs-179" style="edgeStyle=orthogonalEdgeStyle;rounded=0;orthogonalLoop=1;jettySize=auto;html=1;fillColor=#ffe6cc;strokeColor=#d79b00;" parent="1" edge="1">
          <mxGeometry relative="1" as="geometry">
            <mxPoint x="919.6600000000002" y="1039.9999999999998" as="targetPoint" />
            <mxPoint x="919.66" y="1000" as="sourcePoint" />
          </mxGeometry>
        </mxCell>
        <mxCell id="m7AmhTVpTq-Uz_7KJyDs-180" style="edgeStyle=orthogonalEdgeStyle;rounded=0;orthogonalLoop=1;jettySize=auto;html=1;exitX=1;exitY=0.5;exitDx=0;exitDy=0;fillColor=#dae8fc;strokeColor=#6c8ebf;" parent="1" source="m7AmhTVpTq-Uz_7KJyDs-5" edge="1">
          <mxGeometry relative="1" as="geometry">
            <mxPoint x="680" y="760" as="targetPoint" />
            <mxPoint x="610" y="700" as="sourcePoint" />
            <Array as="points">
              <mxPoint x="680" y="700" />
            </Array>
          </mxGeometry>
        </mxCell>
        <mxCell id="m7AmhTVpTq-Uz_7KJyDs-181" value="" style="endArrow=none;html=1;rounded=0;" parent="1" edge="1">
          <mxGeometry width="50" height="50" relative="1" as="geometry">
            <mxPoint x="650" y="750" as="sourcePoint" />
            <mxPoint x="660" y="760" as="targetPoint" />
          </mxGeometry>
        </mxCell>
        <mxCell id="m7AmhTVpTq-Uz_7KJyDs-182" value="" style="endArrow=none;html=1;rounded=0;" parent="1" edge="1">
          <mxGeometry width="50" height="50" relative="1" as="geometry">
            <mxPoint x="660" y="760" as="sourcePoint" />
            <mxPoint x="710" y="750" as="targetPoint" />
            <Array as="points">
              <mxPoint x="700" y="760" />
            </Array>
          </mxGeometry>
        </mxCell>
        <mxCell id="m7AmhTVpTq-Uz_7KJyDs-183" value="" style="endArrow=none;html=1;rounded=0;" parent="1" edge="1">
          <mxGeometry width="50" height="50" relative="1" as="geometry">
            <mxPoint x="660" y="1000" as="sourcePoint" />
            <mxPoint x="700" y="1000" as="targetPoint" />
          </mxGeometry>
        </mxCell>
        <mxCell id="m7AmhTVpTq-Uz_7KJyDs-184" value="" style="endArrow=none;html=1;rounded=0;" parent="1" edge="1">
          <mxGeometry width="50" height="50" relative="1" as="geometry">
            <mxPoint x="650" y="1010.48" as="sourcePoint" />
            <mxPoint x="660" y="1000" as="targetPoint" />
          </mxGeometry>
        </mxCell>
        <mxCell id="m7AmhTVpTq-Uz_7KJyDs-185" value="" style="endArrow=none;html=1;rounded=0;" parent="1" edge="1">
          <mxGeometry width="50" height="50" relative="1" as="geometry">
            <mxPoint x="660" y="1000" as="sourcePoint" />
            <mxPoint x="710" y="1010.48" as="targetPoint" />
            <Array as="points">
              <mxPoint x="700" y="1000" />
            </Array>
          </mxGeometry>
        </mxCell>
        <mxCell id="m7AmhTVpTq-Uz_7KJyDs-186" style="edgeStyle=orthogonalEdgeStyle;rounded=0;orthogonalLoop=1;jettySize=auto;html=1;entryX=0;entryY=0.25;entryDx=0;entryDy=0;fillColor=#dae8fc;strokeColor=#6c8ebf;" parent="1" target="m7AmhTVpTq-Uz_7KJyDs-178" edge="1">
          <mxGeometry relative="1" as="geometry">
            <mxPoint x="929.6600000000002" y="1049.9999999999998" as="targetPoint" />
            <mxPoint x="680" y="1000" as="sourcePoint" />
            <Array as="points">
              <mxPoint x="680" y="1050" />
            </Array>
          </mxGeometry>
        </mxCell>
        <mxCell id="m7AmhTVpTq-Uz_7KJyDs-187" value="Wrought Iron Tools" style="rounded=0;whiteSpace=wrap;html=1;fillColor=#f8cecc;strokeColor=#b85450;" parent="1" vertex="1">
          <mxGeometry x="1400" y="1040" width="80" height="40" as="geometry" />
        </mxCell>
        <mxCell id="m7AmhTVpTq-Uz_7KJyDs-195" value="Final Products" style="rounded=0;whiteSpace=wrap;html=1;strokeColor=#ff7800;strokeWidth=2;" parent="1" vertex="1">
          <mxGeometry x="1380" y="-80" width="120" height="60" as="geometry" />
        </mxCell>
        <mxCell id="m7AmhTVpTq-Uz_7KJyDs-194" value="" style="rounded=0;whiteSpace=wrap;html=1;dashed=1;strokeWidth=2;strokeColor=#FF7800;fillColor=none;" parent="1" vertex="1">
          <mxGeometry x="1380" y="-20" width="120" height="1120" as="geometry" />
        </mxCell>
        <mxCell id="coB8QqFpyWx458fDY29j-20" style="edgeStyle=orthogonalEdgeStyle;rounded=0;orthogonalLoop=1;jettySize=auto;html=1;entryX=0;entryY=0.5;entryDx=0;entryDy=0;fillColor=#d0cee2;strokeColor=#56517e;" edge="1" parent="1">
          <mxGeometry relative="1" as="geometry">
            <mxPoint x="200" y="-230" as="sourcePoint" />
            <mxPoint x="360" y="-230" as="targetPoint" />
          </mxGeometry>
        </mxCell>
        <mxCell id="coB8QqFpyWx458fDY29j-5" value="&lt;div&gt;Stones&lt;/div&gt;&lt;div&gt;(On Ground)&lt;br&gt;&lt;/div&gt;" style="rounded=0;whiteSpace=wrap;html=1;fillColor=#d0cee2;strokeColor=#56517e;" vertex="1" parent="1">
          <mxGeometry x="120" y="-240" width="80" height="40" as="geometry" />
        </mxCell>
        <mxCell id="coB8QqFpyWx458fDY29j-14" value="" style="endArrow=none;html=1;rounded=0;" edge="1" parent="1">
          <mxGeometry width="50" height="50" relative="1" as="geometry">
            <mxPoint x="250" y="-170" as="sourcePoint" />
            <mxPoint x="260" y="-160" as="targetPoint" />
          </mxGeometry>
        </mxCell>
        <mxCell id="coB8QqFpyWx458fDY29j-15" value="" style="endArrow=none;html=1;rounded=0;" edge="1" parent="1">
          <mxGeometry width="50" height="50" relative="1" as="geometry">
            <mxPoint x="260" y="-160" as="sourcePoint" />
            <mxPoint x="310" y="-170" as="targetPoint" />
            <Array as="points">
              <mxPoint x="300" y="-160" />
            </Array>
          </mxGeometry>
        </mxCell>
        <mxCell id="coB8QqFpyWx458fDY29j-16" value="" style="endArrow=none;html=1;rounded=0;" edge="1" parent="1">
          <mxGeometry width="50" height="50" relative="1" as="geometry">
            <mxPoint x="250" y="250.69000000000005" as="sourcePoint" />
            <mxPoint x="260" y="240.21000000000004" as="targetPoint" />
          </mxGeometry>
        </mxCell>
        <mxCell id="coB8QqFpyWx458fDY29j-17" value="" style="endArrow=none;html=1;rounded=0;" edge="1" parent="1">
          <mxGeometry width="50" height="50" relative="1" as="geometry">
            <mxPoint x="260" y="240.21000000000004" as="sourcePoint" />
            <mxPoint x="310" y="250.69000000000005" as="targetPoint" />
            <Array as="points">
              <mxPoint x="300" y="240.21000000000004" />
            </Array>
          </mxGeometry>
        </mxCell>
        <mxCell id="coB8QqFpyWx458fDY29j-19" value="Crude Tools" style="rounded=0;whiteSpace=wrap;html=1;fillColor=#d0cee2;strokeColor=#56517e;" vertex="1" parent="1">
          <mxGeometry x="360" y="-240" width="80" height="40" as="geometry" />
        </mxCell>
        <mxCell id="coB8QqFpyWx458fDY29j-21" value="" style="endArrow=classic;html=1;rounded=0;entryX=0;entryY=0.75;entryDx=0;entryDy=0;fillColor=#d5e8d4;strokeColor=#82b366;" edge="1" parent="1" target="coB8QqFpyWx458fDY29j-19">
          <mxGeometry width="50" height="50" relative="1" as="geometry">
            <mxPoint x="280" y="-160" as="sourcePoint" />
            <mxPoint x="710" y="-100" as="targetPoint" />
            <Array as="points">
              <mxPoint x="280" y="-210" />
            </Array>
          </mxGeometry>
        </mxCell>
      </root>
    </mxGraphModel>
  </diagram>
</mxfile>
